HIERARCHY
ROOT joint_Root
{
	OFFSET 0.0 0.0 0.0
	CHANNELS 6 Xposition Yposition Zposition Zrotation Xrotation Yrotation 
	JOINT Hips
	{
		OFFSET -0.726466 93.3139 -2.00062
		CHANNELS 6 Xposition Yposition Zposition Zrotation Xrotation Yrotation 
		JOINT Spine
		{
			OFFSET 15.7357 0.0 0.0
			CHANNELS 6 Xposition Yposition Zposition Zrotation Xrotation Yrotation 
			JOINT Chest
			{
				OFFSET 8.98455 -0.406207 0.0
				CHANNELS 6 Xposition Yposition Zposition Zrotation Xrotation Yrotation 
				JOINT Neck
				{
					OFFSET 16.3773 0.0 0.0
					CHANNELS 6 Xposition Yposition Zposition Zrotation Xrotation Yrotation 
					JOINT Head
					{
						OFFSET 6.45672 0.0 0.0
						CHANNELS 6 Xposition Yposition Zposition Zrotation Xrotation Yrotation 
						End Site
						{
							OFFSET 0.0 0.0 0.0
						}
					}
				}
				JOINT Shoulder_L
				{
					OFFSET 12.9942 -0.242716 4.98039
					CHANNELS 6 Xposition Yposition Zposition Zrotation Xrotation Yrotation 
					JOINT UpperArm_L
					{
						OFFSET 5.34809 0.0 0.0
						CHANNELS 6 Xposition Yposition Zposition Zrotation Xrotation Yrotation 
						JOINT LowerArm_L
						{
							OFFSET 24.3286 1.87007e-05 0.0
							CHANNELS 6 Xposition Yposition Zposition Zrotation Xrotation Yrotation 
							JOINT Hand_L
							{
								OFFSET 22.2916 0.0 0.0
								CHANNELS 6 Xposition Yposition Zposition Zrotation Xrotation Yrotation 
								End Site
								{
									OFFSET 0.0 0.0 0.0
								}
							}
						}
					}
				}
				JOINT Shoulder_R
				{
					OFFSET 12.9945 -0.242716 -4.98039
					CHANNELS 6 Xposition Yposition Zposition Zrotation Xrotation Yrotation 
					JOINT UpperArm_R
					{
						OFFSET -5.34813 0.0 0.0
						CHANNELS 6 Xposition Yposition Zposition Zrotation Xrotation Yrotation 
						JOINT LowerArm_R
						{
							OFFSET -24.3289 0.000322201 0.0
							CHANNELS 6 Xposition Yposition Zposition Zrotation Xrotation Yrotation 
							JOINT Hand_R
							{
								OFFSET -22.2915 -0.000108084 0.0
								CHANNELS 6 Xposition Yposition Zposition Zrotation Xrotation Yrotation 
								End Site
								{
									OFFSET 0.0 0.0 0.0
								}
							}
						}
					}
				}
			}
		}
		JOINT UpperLeg_L
		{
			OFFSET -2.19248 -6.46944 0.0
			CHANNELS 6 Xposition Yposition Zposition Zrotation Xrotation Yrotation 
			JOINT LowerLeg_L
			{
				OFFSET 39.0811 0.0 -1.23785e-05
				CHANNELS 6 Xposition Yposition Zposition Zrotation Xrotation Yrotation 
				JOINT Foot_L
				{
					OFFSET 40.9854 0.0 -1.26872e-05
					CHANNELS 6 Xposition Yposition Zposition Zrotation Xrotation Yrotation 
					JOINT Toes_L
					{
						OFFSET 11.7543 0.0 0.0
						CHANNELS 6 Xposition Yposition Zposition Zrotation Xrotation Yrotation 
						End Site
						{
							OFFSET 0.0 0.0 0.0
						}
					}
				}
			}
		}
		JOINT UpperLeg_R
		{
			OFFSET -2.19251 6.46944 0.0
			CHANNELS 6 Xposition Yposition Zposition Zrotation Xrotation Yrotation 
			JOINT LowerLeg_R
			{
				OFFSET -39.0811 -0.00228153 -0.0401928
				CHANNELS 6 Xposition Yposition Zposition Zrotation Xrotation Yrotation 
				JOINT Foot_R
				{
					OFFSET -40.9854 0.0 0.0
					CHANNELS 6 Xposition Yposition Zposition Zrotation Xrotation Yrotation 
					JOINT Toes_R
					{
						OFFSET -11.7543 0.0 0.0
						CHANNELS 6 Xposition Yposition Zposition Zrotation Xrotation Yrotation 
						End Site
						{
							OFFSET 0.0 0.0 0.0
						}
					}
				}
			}
		}
	}
}
MOTION
Frames:	9
Frame Time:	0.0333333
0.000000 0.000000 0.000000 0.000000 0.000000 -0.000000 120.110000 90.262500 -181.858000 88.133500 3.478800 2.376900 15.735700 0.000005 -0.000001 83.091000 80.988300 -81.173100 8.984550 -0.406207 -0.000000 10.170100 -2.113820 4.021790 16.377300 -0.000001 -0.000001 7.132180 -2.200200 -0.408019 6.456720 -0.000001 -0.000000 2.312110 -1.049660 -3.452940 12.994200 -0.242716 4.980390 -88.775100 -3.264260 -69.419100 5.348090 -0.000007 -0.000001 -55.868500 35.326200 -12.578400 24.328600 0.000019 0.000005 4.202660 3.790070 -48.025300 22.291600 -0.000001 0.000005 2.169010 5.587890 -10.643000 12.994500 -0.242716 -4.980390 89.103200 2.101920 -66.889100 -5.348130 -0.000001 -0.000004 -52.406900 36.863700 -14.102200 -24.328900 0.000322 -0.000009 -3.332140 -4.532300 -36.372200 -22.291500 -0.000108 -0.000004 0.982617 5.492590 -6.237670 -2.192480 -6.469440 -0.000000 -172.347000 -6.915640 -12.900500 39.081100 -0.000007 -0.000012 0.115788 -0.049210 66.972100 40.985400 -0.000006 -0.000013 0.878511 -5.573470 -59.410800 11.754300 -0.000000 0.000003 -0.006066 -0.071439 -19.484300 -2.192510 6.469440 -0.000001 -175.988000 15.920800 164.251000 -39.081100 -0.002282 -0.040193 0.047163 -0.058574 36.836400 -40.985400 0.000008 0.000006 6.783520 -6.771810 -66.853000 -11.754300 -0.000006 -0.000006 -0.005798 -0.068988 -19.380700
0.000000 0.000000 0.000000 0.000000 0.000000 -0.000000 119.963000 91.033200 -179.128000 88.906700 2.072340 2.593950 15.735700 0.000005 -0.000001 86.217100 81.287600 -84.873800 8.984550 -0.406207 -0.000000 9.636700 -1.120920 2.779120 16.377300 -0.000001 -0.000001 7.699940 -1.691480 -0.353357 6.456720 -0.000001 -0.000000 2.979520 -1.605640 -3.484040 12.994200 -0.242716 4.980390 -88.672400 -3.309840 -68.129500 5.348090 -0.000007 -0.000001 -58.081500 35.252700 -9.148960 24.328600 0.000019 0.000005 3.851300 3.671590 -46.431100 22.291600 -0.000001 0.000005 1.869820 5.583640 -10.408100 12.994500 -0.242716 -4.980390 89.216500 1.894470 -67.527400 -5.348130 -0.000001 -0.000004 -52.130400 36.835600 -16.996500 -24.328900 0.000322 -0.000009 -3.739010 -4.875180 -37.549900 -22.291500 -0.000108 -0.000004 0.702733 5.496880 -6.408790 -2.192480 -6.469440 -0.000000 -173.907000 -9.244670 -16.261500 39.081100 -0.000007 -0.000012 0.112344 -0.054212 64.237900 40.985400 -0.000006 -0.000013 -0.282590 -2.891570 -60.654000 11.754300 -0.000000 0.000003 -0.005073 -0.062173 -19.106500 -2.192510 6.469440 -0.000001 -177.321000 16.321600 168.374000 -39.081100 -0.002282 -0.040193 0.037216 -0.051492 33.375700 -40.985400 0.000008 0.000006 6.755120 -4.926780 -67.060000 -11.754300 -0.000006 -0.000006 -0.005447 -0.065726 -19.247700
0.000000 0.000000 0.000000 0.000000 0.000000 -0.000000 119.869000 91.583000 -176.468000 89.447000 0.711091 2.848130 15.735700 0.000005 -0.000001 89.758200 81.404400 -88.848200 8.984550 -0.406207 -0.000000 9.426110 -0.058956 1.823550 16.377300 -0.000001 -0.000001 8.155060 -1.329190 -0.356356 6.456720 -0.000001 -0.000000 3.339810 -2.168140 -3.393900 12.994200 -0.242716 4.980390 -88.618200 -3.247350 -66.933400 5.348090 -0.000007 -0.000001 -59.914200 34.890900 -6.189690 24.328600 0.000019 0.000005 4.015970 4.010200 -45.113100 22.291600 -0.000001 0.000005 1.641830 5.579640 -10.191700 12.994500 -0.242716 -4.980390 89.290400 1.760400 -68.042600 -5.348130 -0.000001 -0.000004 -50.925200 36.969300 -20.352600 -24.328900 0.000322 -0.000009 -4.035450 -4.956220 -39.223900 -22.291500 -0.000108 -0.000004 0.195962 5.500740 -6.565490 -2.192480 -6.469440 -0.000000 -175.311000 -11.494800 -18.960900 39.081100 -0.000007 -0.000012 0.096502 -0.058153 58.924400 40.985400 -0.000006 -0.000013 -1.412400 -1.068150 -60.832300 11.754300 -0.000000 0.000003 -0.004951 -0.060999 -19.058700 -2.192510 6.469440 -0.000001 -178.619000 16.880000 172.384000 -39.081100 -0.002282 -0.040193 0.028489 -0.043508 30.067400 -40.985400 0.000008 0.000006 6.700260 -2.854870 -67.219100 -11.754300 -0.000006 -0.000006 -0.005916 -0.070073 -19.424900
0.000000 0.000000 0.000000 0.000000 0.000000 -0.000000 119.784000 91.896800 -173.949000 89.738800 -0.802387 2.909750 15.735700 0.000005 -0.000001 93.639200 81.453800 -93.062300 8.984550 -0.406207 -0.000000 9.287950 1.086570 1.064690 16.377300 -0.000001 -0.000001 8.500510 -1.024870 -0.435037 6.456720 -0.000001 -0.000000 3.588760 -2.767930 -3.060540 12.994200 -0.242716 4.980390 -88.613500 -3.077060 -65.729100 5.348090 -0.000007 -0.000001 -61.225100 34.475500 -3.577590 24.328600 0.000019 0.000005 4.441320 4.562960 -44.314000 22.291600 -0.000001 0.000005 1.207030 5.574050 -9.896730 12.994500 -0.242716 -4.980390 89.333800 1.692600 -68.512400 -5.348130 -0.000001 -0.000004 -48.728200 37.558100 -24.184200 -24.328900 0.000322 -0.000009 -4.544950 -5.226890 -41.098400 -22.291500 -0.000108 -0.000004 -0.207158 5.497420 -6.431500 -2.192480 -6.469440 -0.000000 -176.562000 -13.840000 -21.132100 39.081100 -0.000007 -0.000012 0.072629 -0.058068 51.355200 40.985400 -0.000006 -0.000013 -2.030530 -0.711410 -60.825000 11.754300 -0.000000 0.000003 -0.004820 -0.059718 -19.006500 -2.192510 6.469440 -0.000001 -179.627000 17.118000 175.823000 -39.081100 -0.002282 -0.040193 0.019100 -0.030790 27.153700 -40.985400 0.000008 0.000006 6.611250 -1.050880 -67.576700 -11.754300 -0.000006 -0.000006 -0.005515 -0.066365 -19.273700
0.000000 0.000000 0.000000 0.000000 0.000000 -0.000000 119.716000 91.858100 -171.532000 89.685000 -2.439750 2.862770 15.735700 0.000005 -0.000001 97.346300 81.425700 -96.987100 8.984550 -0.406207 -0.000000 9.240070 2.185320 0.541309 16.377300 -0.000001 -0.000001 8.753190 -0.690066 -0.471168 6.456720 -0.000001 -0.000000 3.722980 -3.370370 -2.774500 12.994200 -0.242716 4.980390 -88.594300 -2.951930 -64.522300 5.348090 -0.000007 -0.000001 -62.443500 33.850100 -1.010290 24.328600 0.000019 0.000005 4.639730 4.841930 -43.874800 22.291600 -0.000001 0.000005 0.899728 5.572300 -9.807100 12.994500 -0.242716 -4.980390 89.348400 1.699780 -69.022700 -5.348130 -0.000001 -0.000004 -45.766400 38.241400 -28.415100 -24.328900 0.000322 -0.000009 -5.114150 -5.537460 -42.837000 -22.291500 -0.000108 -0.000004 -0.557291 5.499880 -6.528640 -2.192480 -6.469440 -0.000000 -177.414000 -15.744400 -22.629000 39.081100 -0.000007 -0.000012 0.045693 -0.050862 41.934300 40.985400 -0.000006 -0.000013 -2.372100 -0.675407 -60.713400 11.754300 -0.000000 0.000003 -0.004620 -0.057749 -18.926200 -2.192510 6.469440 -0.000001 179.831000 16.423800 178.478000 -39.081100 -0.002282 -0.040193 0.012125 -0.018600 25.353600 -40.985400 0.000008 0.000006 6.232300 -0.058692 -68.277500 -11.754300 -0.000006 -0.000006 -0.006035 -0.071154 -19.469000
0.000000 0.000000 0.000000 0.000000 0.000000 -0.000000 119.671000 91.525200 -169.131000 89.195800 -4.030500 2.622990 15.735700 0.000005 -0.000001 100.702000 81.316900 -100.387000 8.984550 -0.406207 -0.000000 9.300100 3.211120 0.367528 16.377300 -0.000001 -0.000001 8.763890 -0.449257 -0.539599 6.456720 -0.000001 -0.000000 3.809430 -3.901030 -2.560450 12.994200 -0.242716 4.980390 -88.573100 -2.879910 -63.628100 5.348090 -0.000007 -0.000001 -63.916000 32.687400 1.617890 24.328600 0.000019 0.000005 4.826510 5.070790 -43.691000 22.291600 -0.000001 0.000005 0.960451 5.573450 -9.866200 12.994500 -0.242716 -4.980390 89.390300 1.633750 -69.530900 -5.348130 -0.000001 -0.000004 -42.533000 38.505600 -32.889400 -24.328900 0.000322 -0.000009 -5.770330 -5.975390 -44.142900 -22.291500 -0.000108 -0.000004 -0.875924 5.502410 -6.631450 -2.192480 -6.469440 -0.000000 -177.600000 -16.741800 -23.350000 39.081100 -0.000007 -0.000012 0.023368 -0.039106 30.859800 40.985400 -0.000006 -0.000013 -2.948070 -0.286794 -59.940500 11.754300 -0.000000 0.000003 -0.004252 -0.054040 -18.775100 -2.192510 6.469440 -0.000001 179.715000 15.819400 -179.539000 -39.081100 -0.002282 -0.040193 0.005000 -0.003708 24.461200 -40.985400 0.000008 0.000006 5.962470 0.905331 -69.428400 -11.754300 -0.000006 -0.000006 -0.011746 -0.082911 -19.728100
0.000000 0.000000 0.000000 0.000000 0.000000 -0.000000 119.657000 90.910100 -166.497000 88.255800 -5.597120 2.601620 15.735700 0.000005 -0.000001 103.563000 81.052200 -103.130000 8.984550 -0.406207 -0.000000 9.633570 4.179050 0.513273 16.377300 -0.000001 -0.000001 8.588890 -0.274435 -0.601360 6.456720 -0.000001 -0.000000 3.733430 -4.305910 -2.490220 12.994200 -0.242716 4.980390 -88.476200 -2.986280 -62.950400 5.348090 -0.000007 -0.000001 -65.552000 31.365200 4.115320 24.328600 0.000019 0.000005 4.696970 4.966130 -43.504400 22.291600 -0.000001 0.000005 0.810420 5.573770 -9.882960 12.994500 -0.242716 -4.980390 89.504700 1.359150 -69.976100 -5.348130 -0.000001 -0.000004 -39.849800 38.279400 -37.061700 -24.328900 0.000322 -0.000009 -5.912790 -5.968730 -44.878400 -22.291500 -0.000108 -0.000004 -0.997884 5.500080 -6.536410 -2.192480 -6.469440 -0.000000 -176.870000 -17.006900 -23.067800 39.081100 -0.000007 -0.000012 0.009739 -0.027626 19.420200 40.985400 -0.000006 -0.000013 -2.873510 0.407836 -58.011400 11.754300 -0.000000 0.000003 -0.004161 -0.053115 -18.737400 -2.192510 6.469440 -0.000001 179.825000 15.211600 -177.368000 -39.081100 -0.002282 -0.040193 -0.002141 0.012102 24.262400 -40.985400 0.000008 0.000006 5.557070 1.817000 -71.512500 -11.754300 -0.000006 -0.000006 -0.061287 -0.134513 -19.621000
0.000000 0.000000 0.000000 0.000000 0.000000 -0.000000 119.723000 90.087300 -163.584000 87.276300 -7.253010 2.677310 15.735700 0.000005 -0.000001 106.152000 80.691700 -105.599000 8.984550 -0.406207 -0.000000 10.120900 5.156990 0.649236 16.377300 -0.000001 -0.000001 8.417190 -0.115423 -0.623720 6.456720 -0.000001 -0.000000 3.434260 -4.609700 -2.492200 12.994200 -0.242716 4.980390 -88.380000 -3.119290 -62.537100 5.348090 -0.000007 -0.000001 -67.042100 30.307800 6.237560 24.328600 0.000019 0.000005 4.792980 5.117540 -43.229000 22.291600 -0.000001 0.000005 0.686776 5.571880 -9.784600 12.994500 -0.242716 -4.980390 89.620900 1.065820 -70.419600 -5.348130 -0.000001 -0.000004 -37.835600 37.645600 -40.552400 -24.328900 0.000322 -0.000009 -5.797520 -5.807270 -45.093200 -22.291500 -0.000108 -0.000004 -0.816862 5.501160 -6.580020 -2.192480 -6.469440 -0.000000 -175.816000 -17.289600 -22.708900 39.081100 -0.000007 -0.000012 0.003830 -0.021398 10.149100 40.985400 -0.000006 -0.000013 -2.855040 0.765093 -56.324900 11.754300 -0.000000 0.000003 -0.004530 -0.056848 -18.889500 -2.192510 6.469440 -0.000001 179.595000 14.897100 -174.952000 -39.081100 -0.002282 -0.040193 -0.013678 0.037443 24.408200 -40.985400 0.000008 0.000006 5.123450 3.157730 -74.089000 -11.754300 -0.000006 -0.000006 -0.006522 -0.075508 -19.646600
0.000000 0.000000 0.000000 0.000000 0.000000 -0.000000 119.936000 89.108300 -160.310000 86.682000 -8.726720 2.823080 15.735700 0.000005 -0.000001 108.119000 80.325200 -107.601000 8.984550 -0.406207 -0.000000 10.639500 5.988130 0.477564 16.377300 -0.000001 -0.000001 8.181930 -0.020196 -0.612276 6.456720 -0.000001 -0.000000 3.069690 -4.834620 -2.374340 12.994200 -0.242716 4.980390 -88.371800 -3.115440 -62.389400 5.348090 -0.000007 -0.000001 -67.942600 29.893100 7.777910 24.328600 0.000019 0.000005 4.864860 5.259480 -42.876800 22.291600 -0.000001 0.000005 0.693118 5.570650 -9.721650 12.994500 -0.242716 -4.980390 89.666200 0.959860 -70.823500 -5.348130 -0.000001 -0.000004 -36.793200 36.674200 -42.794700 -24.328900 0.000322 -0.000009 -5.849420 -5.850340 -45.139500 -22.291500 -0.000108 -0.000004 -0.417987 5.502470 -6.633170 -2.192480 -6.469440 -0.000000 -175.607000 -18.650500 -23.327000 39.081100 -0.000007 -0.000012 0.001344 -0.013231 5.801430 40.985400 -0.000006 -0.000013 -2.920630 0.687231 -56.975900 11.754300 -0.000000 0.000003 -0.004741 -0.058946 -18.975000 -2.192510 6.469440 -0.000001 178.695000 14.502800 -172.325000 -39.081100 -0.002282 -0.040193 -0.032178 0.077089 24.720900 -40.985400 0.000008 0.000006 4.557490 4.354070 -76.752000 -11.754300 -0.000006 -0.000006 -0.006196 -0.072604 -19.528100
